{
	"asset":{
		"generator":"Khronos glTF Blender I/O v5.0.21",
		"version":"2.0"
	},
	"scene":0,
	"scenes":[
		{
			"name":"Scene",
			"nodes":[
				0,
				1,
				2,
				3,
				4,
				5,
				6,
				7,
				8,
				9,
				10,
				11,
				12,
				13,
				14,
				15,
				16,
				17,
				18,
				19,
				20,
				21,
				22,
				23,
				24,
				25,
				26,
				27,
				28,
				29,
				40,
				44,
				46,
				47,
				49,
				50,
				51,
				52,
				53,
				54,
				55,
				56,
				59,
				60,
				61,
				62,
				63,
				64,
				65
			]
		}
	],
	"nodes":[
		{
			"mesh":0,
			"name":"Wall Standard (Corner) Alt.001",
			"rotation":[
				0.7071068286895752,
				0,
				0,
				0.7071068286895752
			],
			"translation":[
				2,
				0,
				-3
			]
		},
		{
			"mesh":1,
			"name":"Wall Standard (Corner) Border.001",
			"rotation":[
				0.7071068286895752,
				0,
				0,
				0.7071068286895752
			],
			"translation":[
				2,
				0,
				-3
			]
		},
		{
			"mesh":2,
			"name":"Wall Standard (Corner) Alt.002",
			"rotation":[
				0.5,
				0.5,
				-0.5,
				0.5000000596046448
			],
			"translation":[
				-5,
				0,
				-2
			]
		},
		{
			"mesh":3,
			"name":"Wall Standard (Corner) Border.002",
			"rotation":[
				0.5,
				0.5,
				-0.5,
				0.5000000596046448
			],
			"translation":[
				-5,
				0,
				-2
			]
		},
		{
			"mesh":4,
			"name":"Wall Standard (Corner) Alt.003",
			"rotation":[
				0,
				-0.7071068286895752,
				0.7071068286895752,
				1.1520234011186403e-07
			],
			"translation":[
				-4,
				0,
				3.000000476837158
			]
		},
		{
			"mesh":5,
			"name":"Wall Standard (Corner) Border.003",
			"rotation":[
				0,
				-0.7071068286895752,
				0.7071068286895752,
				1.1520234011186403e-07
			],
			"translation":[
				-4,
				0,
				3.000000476837158
			]
		},
		{
			"mesh":6,
			"name":"Wall Standard (Corner) Alt.004",
			"rotation":[
				0.5,
				-0.5000000596046448,
				0.5,
				0.5
			],
			"translation":[
				3,
				0,
				1.9999995231628418
			]
		},
		{
			"mesh":7,
			"name":"Wall Standard (Corner) Border.004",
			"rotation":[
				0.5,
				-0.5000000596046448,
				0.5,
				0.5
			],
			"translation":[
				3,
				0,
				1.9999995231628418
			]
		},
		{
			"mesh":8,
			"name":"Floor.001",
			"rotation":[
				0.7071068286895752,
				0,
				0,
				0.7071068286895752
			],
			"translation":[
				2,
				0,
				-2
			]
		},
		{
			"mesh":9,
			"name":"Floor.002",
			"rotation":[
				0.7071068286895752,
				0,
				0,
				0.7071068286895752
			],
			"translation":[
				2,
				0,
				0
			]
		},
		{
			"mesh":10,
			"name":"Floor.004",
			"rotation":[
				0.7071068286895752,
				0,
				0,
				0.7071068286895752
			],
			"translation":[
				2,
				0,
				2
			]
		},
		{
			"mesh":11,
			"name":"Floor.005",
			"rotation":[
				0.7071068286895752,
				0,
				0,
				0.7071068286895752
			],
			"translation":[
				0,
				0,
				-2
			]
		},
		{
			"mesh":12,
			"name":"Floor.006",
			"rotation":[
				0.7071068286895752,
				0,
				0,
				0.7071068286895752
			]
		},
		{
			"mesh":13,
			"name":"Floor.008",
			"rotation":[
				0.7071068286895752,
				0,
				0,
				0.7071068286895752
			],
			"translation":[
				0,
				0,
				2
			]
		},
		{
			"mesh":14,
			"name":"Floor.009",
			"rotation":[
				0.7071068286895752,
				0,
				0,
				0.7071068286895752
			],
			"translation":[
				-2,
				0,
				-2
			]
		},
		{
			"mesh":15,
			"name":"Floor.010",
			"rotation":[
				0.7071068286895752,
				0,
				0,
				0.7071068286895752
			],
			"translation":[
				-2,
				0,
				0
			]
		},
		{
			"mesh":16,
			"name":"Floor.012",
			"rotation":[
				0.7071068286895752,
				0,
				0,
				0.7071068286895752
			],
			"translation":[
				-2,
				0,
				2
			]
		},
		{
			"mesh":17,
			"name":"Floor.017",
			"rotation":[
				0.7071068286895752,
				0,
				0,
				0.7071068286895752
			],
			"translation":[
				-4,
				0,
				-2
			]
		},
		{
			"mesh":18,
			"name":"Floor.018",
			"rotation":[
				0.7071068286895752,
				0,
				0,
				0.7071068286895752
			],
			"translation":[
				-4,
				0,
				0
			]
		},
		{
			"mesh":19,
			"name":"Floor.020",
			"rotation":[
				0.7071068286895752,
				0,
				0,
				0.7071068286895752
			],
			"translation":[
				-4,
				0,
				2
			]
		},
		{
			"mesh":20,
			"name":"Wall Standard.001",
			"rotation":[
				0.7071068286895752,
				0,
				0,
				0.7071068286895752
			],
			"translation":[
				0,
				0,
				-3
			]
		},
		{
			"mesh":21,
			"name":"Wall Standard Border.001",
			"rotation":[
				0.7071068286895752,
				0,
				0,
				0.7071068286895752
			],
			"translation":[
				0,
				0,
				-3
			]
		},
		{
			"mesh":22,
			"name":"Wall Standard.002",
			"rotation":[
				0.7071068286895752,
				0,
				0,
				0.7071068286895752
			],
			"translation":[
				-2,
				0,
				-3
			]
		},
		{
			"mesh":23,
			"name":"Wall Standard Border.002",
			"rotation":[
				0.7071068286895752,
				0,
				0,
				0.7071068286895752
			],
			"translation":[
				-2,
				0,
				-3
			]
		},
		{
			"mesh":24,
			"name":"Wall Standard.004",
			"rotation":[
				0.7071068286895752,
				0,
				0,
				0.7071068286895752
			],
			"translation":[
				0,
				0,
				3
			]
		},
		{
			"mesh":25,
			"name":"Wall Standard Border.004",
			"rotation":[
				0.7071068286895752,
				0,
				0,
				0.7071068286895752
			],
			"translation":[
				0,
				0,
				3
			]
		},
		{
			"mesh":26,
			"name":"Wall Standard.007",
			"rotation":[
				0.5,
				0.5,
				-0.5,
				0.5000000596046448
			],
			"translation":[
				-5,
				0,
				0
			]
		},
		{
			"mesh":27,
			"name":"Wall Standard Border.007",
			"rotation":[
				0.5,
				0.5,
				-0.5,
				0.5000000596046448
			],
			"translation":[
				-5,
				0,
				0
			]
		},
		{
			"mesh":28,
			"name":"Wall Standard.009",
			"rotation":[
				0.5,
				0.5,
				-0.5,
				0.5000000596046448
			],
			"translation":[
				3,
				0,
				0
			]
		},
		{
			"mesh":29,
			"name":"Wall Standard Border.009",
			"rotation":[
				0.5,
				0.5,
				-0.5,
				0.5000000596046448
			],
			"translation":[
				3,
				0,
				0
			]
		},
		{
			"mesh":30,
			"name":"Gamer Chair Ac.001",
			"translation":[
				0,
				-0.18776756525039673,
				-0.7650871276855469
			]
		},
		{
			"mesh":31,
			"name":"Gamer Chair Arms .001",
			"translation":[
				0,
				0.05179469287395477,
				-0.6138811111450195
			]
		},
		{
			"mesh":32,
			"name":"Gamer Chair Arms Base.001",
			"translation":[
				0,
				0.05179469287395477,
				-0.6138811111450195
			]
		},
		{
			"mesh":33,
			"name":"Gamer Chair Back.001",
			"translation":[
				0,
				-0.24837535619735718,
				-0.7148752212524414
			]
		},
		{
			"mesh":34,
			"name":"Gamer Chair Base Bottom.001"
		},
		{
			"mesh":35,
			"name":"Gamer Chair Wheel.001",
			"translation":[
				0.21096473932266235,
				0.29037201404571533,
				-0.05136392265558243
			]
		},
		{
			"mesh":36,
			"name":"Gamer Chair Wheel.006",
			"translation":[
				-0.3413506746292114,
				-0.11090945452451706,
				-0.051363952457904816
			]
		},
		{
			"mesh":37,
			"name":"Gamer Chair Wheel.007",
			"translation":[
				-0.21096575260162354,
				0.29037225246429443,
				-0.05136392265558243
			]
		},
		{
			"mesh":38,
			"name":"Gamer Chair Wheel.008",
			"translation":[
				0,
				-0.3589162826538086,
				-0.05136397108435631
			]
		},
		{
			"mesh":39,
			"name":"Gamer Chair Wheel.009",
			"translation":[
				0.341349720954895,
				-0.11091124266386032,
				-0.051363952457904816
			]
		},
		{
			"children":[
				30,
				31,
				32,
				33,
				34,
				35,
				36,
				37,
				38,
				39
			],
			"mesh":40,
			"name":"Gamer Chair Base.001",
			"rotation":[
				0.6626874804496765,
				-0.24666838347911835,
				0.24666836857795715,
				0.6626875996589661
			],
			"translation":[
				-3.577028751373291,
				0,
				-1.7965176105499268
			]
		},
		{
			"mesh":41,
			"name":"Bed (2) Ac",
			"translation":[
				0,
				0,
				-0.47493743896484375
			]
		},
		{
			"mesh":42,
			"name":"Bed (2) Sheets",
			"translation":[
				0,
				0,
				-0.47493743896484375
			]
		},
		{
			"mesh":43,
			"name":"Bed Ac (2) Alt",
			"translation":[
				0,
				-1.287205696105957,
				0
			]
		},
		{
			"children":[
				41,
				42,
				43
			],
			"mesh":44,
			"name":"Bed Base 2 (2)",
			"rotation":[
				0.7071068286895752,
				0,
				0,
				0.7071068286895752
			],
			"translation":[
				0.800000011920929,
				0,
				-1.5
			]
		},
		{
			"mesh":45,
			"name":"Bed Table Ac.001",
			"translation":[
				0,
				0.03814798220992088,
				-0.75
			]
		},
		{
			"children":[
				45
			],
			"mesh":46,
			"name":"Bed Table.001",
			"rotation":[
				0.7071068286895752,
				0,
				0,
				0.7071068286895752
			],
			"translation":[
				2.4000000953674316,
				0,
				-2.4000000953674316
			]
		},
		{
			"mesh":47,
			"name":"Table (Curved).001",
			"rotation":[
				0.7071068286895752,
				0,
				0,
				0.7071068286895752
			],
			"translation":[
				0.800000011920929,
				0,
				0.09999999403953552
			]
		},
		{
			"mesh":48,
			"name":"Drawer A Ac.001",
			"translation":[
				0,
				0,
				-0.75
			]
		},
		{
			"children":[
				48
			],
			"mesh":49,
			"name":"Drawer A.001",
			"rotation":[
				0.7071068286895752,
				0,
				0,
				0.7071068286895752
			],
			"translation":[
				-1.5,
				0,
				-2.299999952316284
			]
		},
		{
			"mesh":50,
			"name":"Computer_Case_Old.001",
			"rotation":[
				0.5,
				0.5,
				-0.5,
				0.5000000596046448
			],
			"translation":[
				-4.5613884925842285,
				0.9500007629394531,
				-0.9064632654190063
			]
		},
		{
			"mesh":51,
			"name":"Computer_Mouse.001",
			"rotation":[
				0.5,
				0.5,
				-0.5,
				0.5000000596046448
			],
			"translation":[
				-4.247613906860352,
				0.9500007629394531,
				-1.8249458074569702
			]
		},
		{
			"mesh":52,
			"name":"Computer_Keyboard.001",
			"rotation":[
				0.5,
				0.5,
				-0.5,
				0.5000000596046448
			],
			"translation":[
				-4.238199234008789,
				0.9500007629394531,
				-1.4734519720077515
			]
		},
		{
			"mesh":53,
			"name":"Computer_Old_Monitor.001",
			"rotation":[
				0.5,
				0.5,
				-0.5,
				0.5000000596046448
			],
			"translation":[
				-4.462896823883057,
				0.9500007629394531,
				-1.4798803329467773
			]
		},
		{
			"mesh":54,
			"name":"Office_Desk_3.001",
			"rotation":[
				0.5,
				0.5,
				-0.5,
				0.5000000596046448
			],
			"translation":[
				-4.5,
				0,
				-1.5
			]
		},
		{
			"mesh":55,
			"name":"Wall Standard (Door) Border.001",
			"rotation":[
				0.7071068286895752,
				0,
				0,
				0.7071068286895752
			],
			"translation":[
				-2,
				0,
				3
			]
		},
		{
			"mesh":56,
			"name":"Wall Standard (Door).001",
			"rotation":[
				0.7071068286895752,
				0,
				0,
				0.7071068286895752
			],
			"translation":[
				-2,
				0,
				3
			]
		},
		{
			"mesh":57,
			"name":"Door Handle 1.001",
			"translation":[
				-0.9361565113067627,
				0.07667692750692368,
				-1.081313133239746
			]
		},
		{
			"mesh":58,
			"name":"Door Handle 1.002",
			"rotation":[
				0,
				1,
				0,
				4.371138828673793e-08
			],
			"translation":[
				-0.9361565113067627,
				-0.07255689054727554,
				-1.081313133239746
			]
		},
		{
			"children":[
				57,
				58
			],
			"mesh":59,
			"name":"Door 1.001",
			"rotation":[
				0.7071068286895752,
				0,
				0,
				0.7071068286895752
			],
			"translation":[
				-1.5,
				0,
				3
			]
		},
		{
			"mesh":60,
			"name":"Door Frame 2.001",
			"rotation":[
				0.7071068286895752,
				0,
				0,
				0.7071068286895752
			],
			"translation":[
				-2,
				0,
				3
			]
		},
		{
			"mesh":61,
			"name":"Bookshelf.001",
			"rotation":[
				0.5,
				0.5,
				-0.5,
				0.5000000596046448
			],
			"translation":[
				-4.5,
				0,
				2.200000047683716
			]
		},
		{
			"mesh":62,
			"name":"Painting 3.001",
			"rotation":[
				0.7071068286895752,
				0,
				0,
				0.7071068286895752
			],
			"translation":[
				0.800000011920929,
				1.8999996185302734,
				-2.9000000953674316
			]
		},
		{
			"mesh":63,
			"name":"Painting 3.002",
			"rotation":[
				0.5,
				0.5,
				-0.5,
				0.5000000596046448
			],
			"translation":[
				-4.900000095367432,
				1.4999996423721313,
				-2.3000001907348633
			]
		},
		{
			"mesh":64,
			"name":"Painting 3.003",
			"rotation":[
				0.5,
				0.5,
				-0.5,
				0.5000000596046448
			],
			"translation":[
				-4.900000095367432,
				1.4999996423721313,
				-1.200000286102295
			]
		},
		{
			"mesh":65,
			"name":"Painting 3.004",
			"rotation":[
				0.5,
				0.5,
				-0.5,
				0.5000000596046448
			],
			"translation":[
				-4.900000095367432,
				1.4999996423721313,
				-0.1000003069639206
			]
		}
	],
	"materials":[
		{
			"doubleSided":true,
			"name":"BlockoutMat"
		}
	],
	"meshes":[
		{
			"name":"Cube.013",
			"primitives":[
				{
					"attributes":{
						"POSITION":0,
						"NORMAL":1,
						"TEXCOORD_0":2
					},
					"indices":3,
					"material":0
				}
			]
		},
		{
			"name":"Cube.021",
			"primitives":[
				{
					"attributes":{
						"POSITION":4,
						"NORMAL":5,
						"TEXCOORD_0":6
					},
					"indices":7,
					"material":0
				}
			]
		},
		{
			"name":"Cube.023",
			"primitives":[
				{
					"attributes":{
						"POSITION":8,
						"NORMAL":9,
						"TEXCOORD_0":10
					},
					"indices":3,
					"material":0
				}
			]
		},
		{
			"name":"Cube.024",
			"primitives":[
				{
					"attributes":{
						"POSITION":11,
						"NORMAL":12,
						"TEXCOORD_0":13
					},
					"indices":7,
					"material":0
				}
			]
		},
		{
			"name":"Cube.025",
			"primitives":[
				{
					"attributes":{
						"POSITION":14,
						"NORMAL":15,
						"TEXCOORD_0":16
					},
					"indices":3,
					"material":0
				}
			]
		},
		{
			"name":"Cube.026",
			"primitives":[
				{
					"attributes":{
						"POSITION":17,
						"NORMAL":18,
						"TEXCOORD_0":19
					},
					"indices":7,
					"material":0
				}
			]
		},
		{
			"name":"Cube.027",
			"primitives":[
				{
					"attributes":{
						"POSITION":20,
						"NORMAL":21,
						"TEXCOORD_0":22
					},
					"indices":3,
					"material":0
				}
			]
		},
		{
			"name":"Cube.028",
			"primitives":[
				{
					"attributes":{
						"POSITION":23,
						"NORMAL":24,
						"TEXCOORD_0":25
					},
					"indices":7,
					"material":0
				}
			]
		},
		{
			"name":"Cube.037",
			"primitives":[
				{
					"attributes":{
						"POSITION":26,
						"NORMAL":27,
						"TEXCOORD_0":28
					},
					"indices":29,
					"material":0
				}
			]
		},
		{
			"name":"Cube.039",
			"primitives":[
				{
					"attributes":{
						"POSITION":30,
						"NORMAL":31,
						"TEXCOORD_0":32
					},
					"indices":29,
					"material":0
				}
			]
		},
		{
			"name":"Cube.043",
			"primitives":[
				{
					"attributes":{
						"POSITION":33,
						"NORMAL":34,
						"TEXCOORD_0":35
					},
					"indices":29,
					"material":0
				}
			]
		},
		{
			"name":"Cube.050",
			"primitives":[
				{
					"attributes":{
						"POSITION":36,
						"NORMAL":37,
						"TEXCOORD_0":38
					},
					"indices":29,
					"material":0
				}
			]
		},
		{
			"name":"Cube.062",
			"primitives":[
				{
					"attributes":{
						"POSITION":39,
						"NORMAL":40,
						"TEXCOORD_0":41
					},
					"indices":29,
					"material":0
				}
			]
		},
		{
			"name":"Cube.096",
			"primitives":[
				{
					"attributes":{
						"POSITION":42,
						"NORMAL":43,
						"TEXCOORD_0":44
					},
					"indices":29,
					"material":0
				}
			]
		},
		{
			"name":"Cube.099",
			"primitives":[
				{
					"attributes":{
						"POSITION":45,
						"NORMAL":46,
						"TEXCOORD_0":47
					},
					"indices":29,
					"material":0
				}
			]
		},
		{
			"name":"Cube.114",
			"primitives":[
				{
					"attributes":{
						"POSITION":48,
						"NORMAL":49,
						"TEXCOORD_0":50
					},
					"indices":29,
					"material":0
				}
			]
		},
		{
			"name":"Cube.119",
			"primitives":[
				{
					"attributes":{
						"POSITION":51,
						"NORMAL":52,
						"TEXCOORD_0":53
					},
					"indices":29,
					"material":0
				}
			]
		},
		{
			"name":"Cube.156",
			"primitives":[
				{
					"attributes":{
						"POSITION":54,
						"NORMAL":55,
						"TEXCOORD_0":56
					},
					"indices":29,
					"material":0
				}
			]
		},
		{
			"name":"Cube.157",
			"primitives":[
				{
					"attributes":{
						"POSITION":57,
						"NORMAL":58,
						"TEXCOORD_0":59
					},
					"indices":29,
					"material":0
				}
			]
		},
		{
			"name":"Cube.169",
			"primitives":[
				{
					"attributes":{
						"POSITION":60,
						"NORMAL":61,
						"TEXCOORD_0":62
					},
					"indices":29,
					"material":0
				}
			]
		},
		{
			"name":"Cube.170",
			"primitives":[
				{
					"attributes":{
						"POSITION":63,
						"NORMAL":64,
						"TEXCOORD_0":65
					},
					"indices":66,
					"material":0
				}
			]
		},
		{
			"name":"Cube.172",
			"primitives":[
				{
					"attributes":{
						"POSITION":67,
						"NORMAL":68,
						"TEXCOORD_0":69
					},
					"indices":70,
					"material":0
				}
			]
		},
		{
			"name":"Cube.177",
			"primitives":[
				{
					"attributes":{
						"POSITION":71,
						"NORMAL":72,
						"TEXCOORD_0":73
					},
					"indices":66,
					"material":0
				}
			]
		},
		{
			"name":"Cube.201",
			"primitives":[
				{
					"attributes":{
						"POSITION":74,
						"NORMAL":75,
						"TEXCOORD_0":76
					},
					"indices":70,
					"material":0
				}
			]
		},
		{
			"name":"Cube.227",
			"primitives":[
				{
					"attributes":{
						"POSITION":77,
						"NORMAL":78,
						"TEXCOORD_0":79
					},
					"indices":66,
					"material":0
				}
			]
		},
		{
			"name":"Cube.228",
			"primitives":[
				{
					"attributes":{
						"POSITION":80,
						"NORMAL":81,
						"TEXCOORD_0":82
					},
					"indices":70,
					"material":0
				}
			]
		},
		{
			"name":"Cube.260",
			"primitives":[
				{
					"attributes":{
						"POSITION":83,
						"NORMAL":84,
						"TEXCOORD_0":85
					},
					"indices":66,
					"material":0
				}
			]
		},
		{
			"name":"Cube.261",
			"primitives":[
				{
					"attributes":{
						"POSITION":86,
						"NORMAL":87,
						"TEXCOORD_0":88
					},
					"indices":70,
					"material":0
				}
			]
		},
		{
			"name":"Cube.264",
			"primitives":[
				{
					"attributes":{
						"POSITION":89,
						"NORMAL":90,
						"TEXCOORD_0":91
					},
					"indices":66,
					"material":0
				}
			]
		},
		{
			"name":"Cube.265",
			"primitives":[
				{
					"attributes":{
						"POSITION":92,
						"NORMAL":93,
						"TEXCOORD_0":94
					},
					"indices":70,
					"material":0
				}
			]
		},
		{
			"name":"Cube.269",
			"primitives":[
				{
					"attributes":{
						"POSITION":95,
						"NORMAL":96,
						"TEXCOORD_0":97
					},
					"indices":98,
					"material":0
				}
			]
		},
		{
			"name":"Cube.277",
			"primitives":[
				{
					"attributes":{
						"POSITION":99,
						"NORMAL":100,
						"TEXCOORD_0":101
					},
					"indices":102,
					"material":0
				}
			]
		},
		{
			"name":"Cube.274",
			"primitives":[
				{
					"attributes":{
						"POSITION":103,
						"NORMAL":104,
						"TEXCOORD_0":105
					},
					"indices":106,
					"material":0
				}
			]
		},
		{
			"name":"Cube.278",
			"primitives":[
				{
					"attributes":{
						"POSITION":107,
						"NORMAL":108,
						"TEXCOORD_0":109
					},
					"indices":110,
					"material":0
				}
			]
		},
		{
			"name":"Cube.271",
			"primitives":[
				{
					"attributes":{
						"POSITION":111,
						"NORMAL":112,
						"TEXCOORD_0":113
					},
					"indices":114,
					"material":0
				}
			]
		},
		{
			"name":"Cube.268",
			"primitives":[
				{
					"attributes":{
						"POSITION":115,
						"NORMAL":116,
						"TEXCOORD_0":117
					},
					"indices":118,
					"material":0
				}
			]
		},
		{
			"name":"Cube.270",
			"primitives":[
				{
					"attributes":{
						"POSITION":119,
						"NORMAL":120,
						"TEXCOORD_0":121
					},
					"indices":122,
					"material":0
				}
			]
		},
		{
			"name":"Cube.273",
			"primitives":[
				{
					"attributes":{
						"POSITION":123,
						"NORMAL":124,
						"TEXCOORD_0":125
					},
					"indices":126,
					"material":0
				}
			]
		},
		{
			"name":"Cube.275",
			"primitives":[
				{
					"attributes":{
						"POSITION":127,
						"NORMAL":128,
						"TEXCOORD_0":129
					},
					"indices":130,
					"material":0
				}
			]
		},
		{
			"name":"Cube.276",
			"primitives":[
				{
					"attributes":{
						"POSITION":131,
						"NORMAL":132,
						"TEXCOORD_0":133
					},
					"indices":126,
					"material":0
				}
			]
		},
		{
			"name":"Cube.272",
			"primitives":[
				{
					"attributes":{
						"POSITION":134,
						"NORMAL":135,
						"TEXCOORD_0":136
					},
					"indices":137,
					"material":0
				}
			]
		},
		{
			"name":"Cube.239",
			"primitives":[
				{
					"attributes":{
						"POSITION":138,
						"NORMAL":139,
						"TEXCOORD_0":140
					},
					"indices":141,
					"material":0
				}
			]
		},
		{
			"name":"Cube.241",
			"primitives":[
				{
					"attributes":{
						"POSITION":142,
						"NORMAL":143,
						"TEXCOORD_0":144
					},
					"indices":145,
					"material":0
				}
			]
		},
		{
			"name":"Cube.750",
			"primitives":[
				{
					"attributes":{
						"POSITION":146,
						"NORMAL":147,
						"TEXCOORD_0":148
					},
					"indices":149,
					"material":0
				}
			]
		},
		{
			"name":"Cube.238",
			"primitives":[
				{
					"attributes":{
						"POSITION":150,
						"NORMAL":151,
						"TEXCOORD_0":152
					},
					"indices":153,
					"material":0
				}
			]
		},
		{
			"name":"Cube.279",
			"primitives":[
				{
					"attributes":{
						"POSITION":154,
						"NORMAL":155,
						"TEXCOORD_0":156
					},
					"indices":157,
					"material":0
				}
			]
		},
		{
			"name":"Cube.280",
			"primitives":[
				{
					"attributes":{
						"POSITION":158,
						"NORMAL":159,
						"TEXCOORD_0":160
					},
					"indices":161,
					"material":0
				}
			]
		},
		{
			"name":"Cube.281",
			"primitives":[
				{
					"attributes":{
						"POSITION":162,
						"NORMAL":163,
						"TEXCOORD_0":164
					},
					"indices":165,
					"material":0
				}
			]
		},
		{
			"name":"Cube.283",
			"primitives":[
				{
					"attributes":{
						"POSITION":166,
						"NORMAL":167,
						"TEXCOORD_0":168
					},
					"indices":169,
					"material":0
				}
			]
		},
		{
			"name":"Cube.282",
			"primitives":[
				{
					"attributes":{
						"POSITION":170,
						"NORMAL":171,
						"TEXCOORD_0":172
					},
					"indices":173,
					"material":0
				}
			]
		},
		{
			"name":"Cube.426",
			"primitives":[
				{
					"attributes":{
						"POSITION":174,
						"NORMAL":175,
						"TEXCOORD_0":176
					},
					"indices":177,
					"material":0
				}
			]
		},
		{
			"name":"Cube.427",
			"primitives":[
				{
					"attributes":{
						"POSITION":178,
						"NORMAL":179,
						"TEXCOORD_0":180
					},
					"indices":181,
					"material":0
				}
			]
		},
		{
			"name":"Cube.428",
			"primitives":[
				{
					"attributes":{
						"POSITION":182,
						"NORMAL":183,
						"TEXCOORD_0":184
					},
					"indices":185,
					"material":0
				}
			]
		},
		{
			"name":"Cube.429",
			"primitives":[
				{
					"attributes":{
						"POSITION":186,
						"NORMAL":187,
						"TEXCOORD_0":188
					},
					"indices":189,
					"material":0
				}
			]
		},
		{
			"name":"Cube.430",
			"primitives":[
				{
					"attributes":{
						"POSITION":190,
						"NORMAL":191,
						"TEXCOORD_0":192
					},
					"indices":193,
					"material":0
				}
			]
		},
		{
			"name":"Cube.130",
			"primitives":[
				{
					"attributes":{
						"POSITION":194,
						"NORMAL":195,
						"TEXCOORD_0":196
					},
					"indices":197,
					"material":0
				}
			]
		},
		{
			"name":"Cube.149",
			"primitives":[
				{
					"attributes":{
						"POSITION":198,
						"NORMAL":199,
						"TEXCOORD_0":200
					},
					"indices":201,
					"material":0
				}
			]
		},
		{
			"name":"Cube.152",
			"primitives":[
				{
					"attributes":{
						"POSITION":202,
						"NORMAL":203,
						"TEXCOORD_0":204
					},
					"indices":205,
					"material":0
				}
			]
		},
		{
			"name":"Cube.226",
			"primitives":[
				{
					"attributes":{
						"POSITION":206,
						"NORMAL":207,
						"TEXCOORD_0":208
					},
					"indices":209,
					"material":0
				}
			]
		},
		{
			"name":"Cube.154",
			"primitives":[
				{
					"attributes":{
						"POSITION":210,
						"NORMAL":211,
						"TEXCOORD_0":212
					},
					"indices":213,
					"material":0
				}
			]
		},
		{
			"name":"Cube.205",
			"primitives":[
				{
					"attributes":{
						"POSITION":214,
						"NORMAL":215,
						"TEXCOORD_0":216
					},
					"indices":217,
					"material":0
				}
			]
		},
		{
			"name":"Cube.249",
			"primitives":[
				{
					"attributes":{
						"POSITION":218,
						"NORMAL":219,
						"TEXCOORD_0":220
					},
					"indices":221,
					"material":0
				}
			]
		},
		{
			"name":"Cube.250",
			"primitives":[
				{
					"attributes":{
						"POSITION":222,
						"NORMAL":223,
						"TEXCOORD_0":224
					},
					"indices":225,
					"material":0
				}
			]
		},
		{
			"name":"Cube.431",
			"primitives":[
				{
					"attributes":{
						"POSITION":226,
						"NORMAL":227,
						"TEXCOORD_0":228
					},
					"indices":229,
					"material":0
				}
			]
		},
		{
			"name":"Cube.432",
			"primitives":[
				{
					"attributes":{
						"POSITION":230,
						"NORMAL":231,
						"TEXCOORD_0":232
					},
					"indices":229,
					"material":0
				}
			]
		},
		{
			"name":"Cube.433",
			"primitives":[
				{
					"attributes":{
						"POSITION":233,
						"NORMAL":234,
						"TEXCOORD_0":235
					},
					"indices":229,
					"material":0
				}
			]
		}
	],
	"accessors":[
		{
			"bufferView":0,
			"componentType":5126,
			"count":38,
			"max":[
				1.0999996662139893,
				2,
				2.9802322387695312e-08
			],
			"min":[
				-1,
				-0.1000000461935997,
				-3
			],
			"type":"VEC3"
		},
		{
			"bufferView":1,
			"componentType":5126,
			"count":38,
			"type":"VEC3"
		},
		{
			"bufferView":2,
			"componentType":5126,
			"count":38,
			"type":"VEC2"
		},
		{
			"bufferView":3,
			"componentType":5123,
			"count":60,
			"type":"SCALAR"
		},
		{
			"bufferView":4,
			"componentType":5126,
			"count":46,
			"max":[
				1.1300004720687866,
				2,
				0
			],
			"min":[
				-1,
				-0.1300000548362732,
				-0.14524692296981812
			],
			"type":"VEC3"
		},
		{
			"bufferView":5,
			"componentType":5126,
			"count":46,
			"type":"VEC3"
		},
		{
			"bufferView":6,
			"componentType":5126,
			"count":46,
			"type":"VEC2"
		},
		{
			"bufferView":7,
			"componentType":5123,
			"count":84,
			"type":"SCALAR"
		},
		{
			"bufferView":8,
			"componentType":5126,
			"count":38,
			"max":[
				1.0999996662139893,
				2,
				2.9802322387695312e-08
			],
			"min":[
				-1,
				-0.1000000461935997,
				-3
			],
			"type":"VEC3"
		},
		{
			"bufferView":9,
			"componentType":5126,
			"count":38,
			"type":"VEC3"
		},
		{
			"bufferView":10,
			"componentType":5126,
			"count":38,
			"type":"VEC2"
		},
		{
			"bufferView":11,
			"componentType":5126,
			"count":46,
			"max":[
				1.1300004720687866,
				2,
				0
			],
			"min":[
				-1,
				-0.1300000548362732,
				-0.14524692296981812
			],
			"type":"VEC3"
		},
		{
			"bufferView":12,
			"componentType":5126,
			"count":46,
			"type":"VEC3"
		},
		{
			"bufferView":13,
			"componentType":5126,
			"count":46,
			"type":"VEC2"
		},
		{
			"bufferView":14,
			"componentType":5126,
			"count":38,
			"max":[
				1.0999996662139893,
				2,
				2.9802322387695312e-08
			],
			"min":[
				-1,
				-0.1000000461935997,
				-3
			],
			"type":"VEC3"
		},
		{
			"bufferView":15,
			"componentType":5126,
			"count":38,
			"type":"VEC3"
		},
		{
			"bufferView":16,
			"componentType":5126,
			"count":38,
			"type":"VEC2"
		},
		{
			"bufferView":17,
			"componentType":5126,
			"count":46,
			"max":[
				1.1300004720687866,
				2,
				0
			],
			"min":[
				-1,
				-0.1300000548362732,
				-0.14524692296981812
			],
			"type":"VEC3"
		},
		{
			"bufferView":18,
			"componentType":5126,
			"count":46,
			"type":"VEC3"
		},
		{
			"bufferView":19,
			"componentType":5126,
			"count":46,
			"type":"VEC2"
		},
		{
			"bufferView":20,
			"componentType":5126,
			"count":38,
			"max":[
				1.0999996662139893,
				2,
				2.9802322387695312e-08
			],
			"min":[
				-1,
				-0.1000000461935997,
				-3
			],
			"type":"VEC3"
		},
		{
			"bufferView":21,
			"componentType":5126,
			"count":38,
			"type":"VEC3"
		},
		{
			"bufferView":22,
			"componentType":5126,
			"count":38,
			"type":"VEC2"
		},
		{
			"bufferView":23,
			"componentType":5126,
			"count":46,
			"max":[
				1.1300004720687866,
				2,
				0
			],
			"min":[
				-1,
				-0.1300000548362732,
				-0.14524692296981812
			],
			"type":"VEC3"
		},
		{
			"bufferView":24,
			"componentType":5126,
			"count":46,
			"type":"VEC3"
		},
		{
			"bufferView":25,
			"componentType":5126,
			"count":46,
			"type":"VEC2"
		},
		{
			"bufferView":26,
			"componentType":5126,
			"count":24,
			"max":[
				0.9999991655349731,
				1.000000238418579,
				0.03999999910593033
			],
			"min":[
				-0.9999990463256836,
				-1.0000001192092896,
				0
			],
			"type":"VEC3"
		},
		{
			"bufferView":27,
			"componentType":5126,
			"count":24,
			"type":"VEC3"
		},
		{
			"bufferView":28,
			"componentType":5126,
			"count":24,
			"type":"VEC2"
		},
		{
			"bufferView":29,
			"componentType":5123,
			"count":36,
			"type":"SCALAR"
		},
		{
			"bufferView":30,
			"componentType":5126,
			"count":24,
			"max":[
				0.9999991655349731,
				1.000000238418579,
				0.03999999910593033
			],
			"min":[
				-0.9999990463256836,
				-1.0000001192092896,
				0
			],
			"type":"VEC3"
		},
		{
			"bufferView":31,
			"componentType":5126,
			"count":24,
			"type":"VEC3"
		},
		{
			"bufferView":32,
			"componentType":5126,
			"count":24,
			"type":"VEC2"
		},
		{
			"bufferView":33,
			"componentType":5126,
			"count":24,
			"max":[
				0.9999991655349731,
				1.000000238418579,
				0.03999999910593033
			],
			"min":[
				-0.9999990463256836,
				-1.0000001192092896,
				0
			],
			"type":"VEC3"
		},
		{
			"bufferView":34,
			"componentType":5126,
			"count":24,
			"type":"VEC3"
		},
		{
			"bufferView":35,
			"componentType":5126,
			"count":24,
			"type":"VEC2"
		},
		{
			"bufferView":36,
			"componentType":5126,
			"count":24,
			"max":[
				0.9999991655349731,
				1.000000238418579,
				0.03999999910593033
			],
			"min":[
				-0.9999990463256836,
				-1.0000001192092896,
				0
			],
			"type":"VEC3"
		},
		{
			"bufferView":37,
			"componentType":5126,
			"count":24,
			"type":"VEC3"
		},
		{
			"bufferView":38,
			"componentType":5126,
			"count":24,
			"type":"VEC2"
		},
		{
			"bufferView":39,
			"componentType":5126,
			"count":24,
			"max":[
				0.9999991655349731,
				1.000000238418579,
				0.03999999910593033
			],
			"min":[
				-0.9999990463256836,
				-1.0000001192092896,
				0
			],
			"type":"VEC3"
		},
		{
			"bufferView":40,
			"componentType":5126,
			"count":24,
			"type":"VEC3"
		},
		{
			"bufferView":41,
			"componentType":5126,
			"count":24,
			"type":"VEC2"
		},
		{
			"bufferView":42,
			"componentType":5126,
			"count":24,
			"max":[
				0.9999991655349731,
				1.000000238418579,
				0.03999999910593033
			],
			"min":[
				-0.9999990463256836,
				-1.0000001192092896,
				0
			],
			"type":"VEC3"
		},
		{
			"bufferView":43,
			"componentType":5126,
			"count":24,
			"type":"VEC3"
		},
		{
			"bufferView":44,
			"componentType":5126,
			"count":24,
			"type":"VEC2"
		},
		{
			"bufferView":45,
			"componentType":5126,
			"count":24,
			"max":[
				0.9999991655349731,
				1.000000238418579,
				0.03999999910593033
			],
			"min":[
				-0.9999990463256836,
				-1.0000001192092896,
				0
			],
			"type":"VEC3"
		},
		{
			"bufferView":46,
			"componentType":5126,
			"count":24,
			"type":"VEC3"
		},
		{
			"bufferView":47,
			"componentType":5126,
			"count":24,
			"type":"VEC2"
		},
		{
			"bufferView":48,
			"componentType":5126,
			"count":24,
			"max":[
				0.9999991655349731,
				1.000000238418579,
				0.03999999910593033
			],
			"min":[
				-0.9999990463256836,
				-1.0000001192092896,
				0
			],
			"type":"VEC3"
		},
		{
			"bufferView":49,
			"componentType":5126,
			"count":24,
			"type":"VEC3"
		},
		{
			"bufferView":50,
			"componentType":5126,
			"count":24,
			"type":"VEC2"
		},
		{
			"bufferView":51,
			"componentType":5126,
			"count":24,
			"max":[
				0.9999991655349731,
				1.000000238418579,
				0.03999999910593033
			],
			"min":[
				-0.9999990463256836,
				-1.0000001192092896,
				0
			],
			"type":"VEC3"
		},
		{
			"bufferView":52,
			"componentType":5126,
			"count":24,
			"type":"VEC3"
		},
		{
			"bufferView":53,
			"componentType":5126,
			"count":24,
			"type":"VEC2"
		},
		{
			"bufferView":54,
			"componentType":5126,
			"count":24,
			"max":[
				0.9999991655349731,
				1.000000238418579,
				0.03999999910593033
			],
			"min":[
				-0.9999990463256836,
				-1.0000001192092896,
				0
			],
			"type":"VEC3"
		},
		{
			"bufferView":55,
			"componentType":5126,
			"count":24,
			"type":"VEC3"
		},
		{
			"bufferView":56,
			"componentType":5126,
			"count":24,
			"type":"VEC2"
		},
		{
			"bufferView":57,
			"componentType":5126,
			"count":24,
			"max":[
				0.9999991655349731,
				1.000000238418579,
				0.03999999910593033
			],
			"min":[
				-0.9999990463256836,
				-1.0000001192092896,
				0
			],
			"type":"VEC3"
		},
		{
			"bufferView":58,
			"componentType":5126,
			"count":24,
			"type":"VEC3"
		},
		{
			"bufferView":59,
			"componentType":5126,
			"count":24,
			"type":"VEC2"
		},
		{
			"bufferView":60,
			"componentType":5126,
			"count":24,
			"max":[
				0.9999991655349731,
				1.000000238418579,
				0.03999999910593033
			],
			"min":[
				-0.9999990463256836,
				-1.0000001192092896,
				0
			],
			"type":"VEC3"
		},
		{
			"bufferView":61,
			"componentType":5126,
			"count":24,
			"type":"VEC3"
		},
		{
			"bufferView":62,
			"componentType":5126,
			"count":24,
			"type":"VEC2"
		},
		{
			"bufferView":63,
			"componentType":5126,
			"count":24,
			"max":[
				1.000000238418579,
				0.09999999403953552,
				0
			],
			"min":[
				-1,
				-0.1000000461935997,
				-3
			],
			"type":"VEC3"
		},
		{
			"bufferView":64,
			"componentType":5126,
			"count":24,
			"type":"VEC3"
		},
		{
			"bufferView":65,
			"componentType":5126,
			"count":24,
			"type":"VEC2"
		},
		{
			"bufferView":66,
			"componentType":5123,
			"count":36,
			"type":"SCALAR"
		},
		{
			"bufferView":67,
			"componentType":5126,
			"count":24,
			"max":[
				1.000000238418579,
				0.12999999523162842,
				0
			],
			"min":[
				-1,
				-0.12999999523162842,
				-0.14524686336517334
			],
			"type":"VEC3"
		},
		{
			"bufferView":68,
			"componentType":5126,
			"count":24,
			"type":"VEC3"
		},
		{
			"bufferView":69,
			"componentType":5126,
			"count":24,
			"type":"VEC2"
		},
		{
			"bufferView":70,
			"componentType":5123,
			"count":36,
			"type":"SCALAR"
		},
		{
			"bufferView":71,
			"componentType":5126,
			"count":24,
			"max":[
				1.000000238418579,
				0.09999999403953552,
				0
			],
			"min":[
				-1,
				-0.1000000461935997,
				-3
			],
			"type":"VEC3"
		},
		{
			"bufferView":72,
			"componentType":5126,
			"count":24,
			"type":"VEC3"
		},
		{
			"bufferView":73,
			"componentType":5126,
			"count":24,
			"type":"VEC2"
		},
		{
			"bufferView":74,
			"componentType":5126,
			"count":24,
			"max":[
				1.000000238418579,
				0.12999999523162842,
				0
			],
			"min":[
				-1,
				-0.12999999523162842,
				-0.14524686336517334
			],
			"type":"VEC3"
		},
		{
			"bufferView":75,
			"componentType":5126,
			"count":24,
			"type":"VEC3"
		},
		{
			"bufferView":76,
			"componentType":5126,
			"count":24,
			"type":"VEC2"
		},
		{
			"bufferView":77,
			"componentType":5126,
			"count":24,
			"max":[
				1.000000238418579,
				0.09999999403953552,
				0
			],
			"min":[
				-1,
				-0.1000000461935997,
				-3
			],
			"type":"VEC3"
		},
		{
			"bufferView":78,
			"componentType":5126,
			"count":24,
			"type":"VEC3"
		},
		{
			"bufferView":79,
			"componentType":5126,
			"count":24,
			"type":"VEC2"
		},
		{
			"bufferView":80,
			"componentType":5126,
			"count":24,
			"max":[
				1.000000238418579,
				0.12999999523162842,
				0
			],
			"min":[
				-1,
				-0.12999999523162842,
				-0.14524686336517334
			],
			"type":"VEC3"
		},
		{
			"bufferView":81,
			"componentType":5126,
			"count":24,
			"type":"VEC3"
		},
		{
			"bufferView":82,
			"componentType":5126,
			"count":24,
			"type":"VEC2"
		},
		{
			"bufferView":83,
			"componentType":5126,
			"count":24,
			"max":[
				1.000000238418579,
				0.09999999403953552,
				0
			],
			"min":[
				-1,
				-0.1000000461935997,
				-3
			],
			"type":"VEC3"
		},
		{
			"bufferView":84,
			"componentType":5126,
			"count":24,
			"type":"VEC3"
		},
		{
			"bufferView":85,
			"componentType":5126,
			"count":24,
			"type":"VEC2"
		},
		{
			"bufferView":86,
			"componentType":5126,
			"count":24,
			"max":[
				1.000000238418579,
				0.12999999523162842,
				0
			],
			"min":[
				-1,
				-0.12999999523162842,
				-0.14524686336517334
			],
			"type":"VEC3"
		},
		{
			"bufferView":87,
			"componentType":5126,
			"count":24,
			"type":"VEC3"
		},
		{
			"bufferView":88,
			"componentType":5126,
			"count":24,
			"type":"VEC2"
		},
		{
			"bufferView":89,
			"componentType":5126,
			"count":24,
			"max":[
				1.000000238418579,
				0.09999999403953552,
				0
			],
			"min":[
				-1,
				-0.1000000461935997,
				-3
			],
			"type":"VEC3"
		},
		{
			"bufferView":90,
			"componentType":5126,
			"count":24,
			"type":"VEC3"
		},
		{
			"bufferView":91,
			"componentType":5126,
			"count":24,
			"type":"VEC2"
		},
		{
			"bufferView":92,
			"componentType":5126,
			"count":24,
			"max":[
				1.000000238418579,
				0.12999999523162842,
				0
			],
			"min":[
				-1,
				-0.12999999523162842,
				-0.14524686336517334
			],
			"type":"VEC3"
		},
		{
			"bufferView":93,
			"componentType":5126,
			"count":24,
			"type":"VEC3"
		},
		{
			"bufferView":94,
			"componentType":5126,
			"count":24,
			"type":"VEC2"
		},
		{
			"bufferView":95,
			"componentType":5126,
			"count":180,
			"max":[
				0.2206099033355713,
				0.07373046875,
				0.08108390867710114
			],
			"min":[
				-0.2206099033355713,
				-0.0516575463116169,
				-0.09115145355463028
			],
			"type":"VEC3"
		},
		{
			"bufferView":96,
			"componentType":5126,
			"count":180,
			"type":"VEC3"
		},
		{
			"bufferView":97,
			"componentType":5126,
			"count":180,
			"type":"VEC2"
		},
		{
			"bufferView":98,
			"componentType":5123,
			"count":780,
			"type":"SCALAR"
		},
		{
			"bufferView":99,
			"componentType":5126,
			"count":500,
			"max":[
				0.3646956980228424,
				0.12485603988170624,
				-0.20023542642593384
			],
			"min":[
				-0.3646956980228424,
				-0.12303142249584198,
				-0.36331453919410706
			],
			"type":"VEC3"
		},
		{
			"bufferView":100,
			"componentType":5126,
			"count":500,
			"type":"VEC3"
		},
		{
			"bufferView":101,
			"componentType":5126,
			"count":500,
			"type":"VEC2"
		},
		{
			"bufferView":102,
			"componentType":5123,
			"count":816,
			"type":"SCALAR"
		},
		{
			"bufferView":103,
			"componentType":5126,
			"count":194,
			"max":[
				0.34368282556533813,
				0.03949233889579773,
				0.016828417778015137
			],
			"min":[
				-0.34368282556533813,
				-0.03762074187397957,
				-0.20734858512878418
			],
			"type":"VEC3"
		},
		{
			"bufferView":104,
			"componentType":5126,
			"count":194,
			"type":"VEC3"
		},
		{
			"bufferView":105,
			"componentType":5126,
			"count":194,
			"type":"VEC2"
		},
		{
			"bufferView":106,
			"componentType":5123,
			"count":312,
			"type":"SCALAR"
		},
		{
			"bufferView":107,
			"componentType":5126,
			"count":1217,
			"max":[
				0.327535480260849,
				0.16092582046985626,
				0.05174313113093376
			],
			"min":[
				-0.327535480260849,
				-0.11066310852766037,
				-0.9062576293945312
			],
			"type":"VEC3"
		},
		{
			"bufferView":108,
			"componentType":5126,
			"count":1217,
			"type":"VEC3"
		},
		{
			"bufferView":109,
			"componentType":5126,
			"count":1217,
			"type":"VEC2"
		},
		{
			"bufferView":110,
			"componentType":5123,
			"count":3504,
			"type":"SCALAR"
		},
		{
			"bufferView":111,
			"componentType":5126,
			"count":322,
			"max":[
				0.35278618335723877,
				0.3036860525608063,
				-0.07281569391489029
			],
			"min":[
				-0.35278627276420593,
				-0.3673533499240875,
				-0.4544130563735962
			],
			"type":"VEC3"
		},
		{
			"bufferView":112,
			"componentType":5126,
			"count":322,
			"type":"VEC3"
		},
		{
			"bufferView":113,
			"componentType":5126,
			"count":322,
			"type":"VEC2"
		},
		{
			"bufferView":114,
			"componentType":5123,
			"count":630,
			"type":"SCALAR"
		},
		{
			"bufferView":115,
			"componentType":5126,
			"count":130,
			"max":[
				0.021189305931329727,
				0.04361937940120697,
				0.05563792958855629
			],
			"min":[
				-0.021189190447330475,
				-0.04361957311630249,
				-0.03160107880830765
			],
			"type":"VEC3"
		},
		{
			"bufferView":116,
			"componentType":5126,
			"count":130,
			"type":"VEC3"
		},
		{
			"bufferView":117,
			"componentType":5126,
			"count":130,
			"type":"VEC2"
		},
		{
			"bufferView":118,
			"componentType":5123,
			"count":276,
			"type":"SCALAR"
		},
		{
			"bufferView":119,
			"componentType":5126,
			"count":130,
			"max":[
				0.02118927612900734,
				0.043619364500045776,
				0.05563792958855629
			],
			"min":[
				-0.021189164370298386,
				-0.043619554489851,
				-0.03160107880830765
			],
			"type":"VEC3"
		},
		{
			"bufferView":120,
			"componentType":5126,
			"count":130,
			"type":"VEC3"
		},
		{
			"bufferView":121,
			"componentType":5126,
			"count":130,
			"type":"VEC2"
		},
		{
			"bufferView":122,
			"componentType":5123,
			"count":276,
			"type":"SCALAR"
		},
		{
			"bufferView":123,
			"componentType":5126,
			"count":130,
			"max":[
				0.02118927612900734,
				0.043619364500045776,
				0.05563792958855629
			],
			"min":[
				-0.021189164370298386,
				-0.043619554489851,
				-0.03160107880830765
			],
			"type":"VEC3"
		},
		{
			"bufferView":124,
			"componentType":5126,
			"count":130,
			"type":"VEC3"
		},
		{
			"bufferView":125,
			"componentType":5126,
			"count":130,
			"type":"VEC2"
		},
		{
			"bufferView":126,
			"componentType":5123,
			"count":276,
			"type":"SCALAR"
		},
		{
			"bufferView":127,
			"componentType":5126,
			"count":130,
			"max":[
				0.02118927612900734,
				0.043619364500045776,
				0.05563792958855629
			],
			"min":[
				-0.021189164370298386,
				-0.043619554489851,
				-0.03160107880830765
			],
			"type":"VEC3"
		},
		{
			"bufferView":128,
			"componentType":5126,
			"count":130,
			"type":"VEC3"
		},
		{
			"bufferView":129,
			"componentType":5126,
			"count":130,
			"type":"VEC2"
		},
		{
			"bufferView":130,
			"componentType":5123,
			"count":276,
			"type":"SCALAR"
		},
		{
			"bufferView":131,
			"componentType":5126,
			"count":130,
			"max":[
				0.021189305931329727,
				0.04361937940120697,
				0.05563792958855629
			],
			"min":[
				-0.021189190447330475,
				-0.04361957311630249,
				-0.03160107880830765
			],
			"type":"VEC3"
		},
		{
			"bufferView":132,
			"componentType":5126,
			"count":130,
			"type":"VEC3"
		},
		{
			"bufferView":133,
			"componentType":5126,
			"count":130,
			"type":"VEC2"
		},
		{
			"bufferView":134,
			"componentType":5126,
			"count":489,
			"max":[
				0.3140593469142914,
				0.2524327337741852,
				-0.4366365671157837
			],
			"min":[
				-0.3140593469142914,
				-0.24925635755062103,
				-0.8042117953300476
			],
			"type":"VEC3"
		},
		{
			"bufferView":135,
			"componentType":5126,
			"count":489,
			"type":"VEC3"
		},
		{
			"bufferView":136,
			"componentType":5126,
			"count":489,
			"type":"VEC2"
		},
		{
			"bufferView":137,
			"componentType":5123,
			"count":1482,
			"type":"SCALAR"
		},
		{
			"bufferView":138,
			"componentType":5126,
			"count":72,
			"max":[
				1.0378133058547974,
				1.2194277048110962,
				0.1229090690612793
			],
			"min":[
				-1.0378133058547974,
				-1.2194277048110962,
				-0.12290891259908676
			],
			"type":"VEC3"
		},
		{
			"bufferView":139,
			"componentType":5126,
			"count":72,
			"type":"VEC3"
		},
		{
			"bufferView":140,
			"componentType":5126,
			"count":72,
			"type":"VEC2"
		},
		{
			"bufferView":141,
			"componentType":5123,
			"count":180,
			"type":"SCALAR"
		},
		{
			"bufferView":142,
			"componentType":5126,
			"count":672,
			"max":[
				1.1649137735366821,
				1.280764102935791,
				0.2950820326805115
			],
			"min":[
				-1.1646696329116821,
				-0.7067101001739502,
				-0.20702262222766876
			],
			"type":"VEC3"
		},
		{
			"bufferView":143,
			"componentType":5126,
			"count":672,
			"type":"VEC3"
		},
		{
			"bufferView":144,
			"componentType":5126,
			"count":672,
			"type":"VEC2"
		},
		{
			"bufferView":145,
			"componentType":5123,
			"count":1044,
			"type":"SCALAR"
		},
		{
			"bufferView":146,
			"componentType":5126,
			"count":340,
			"max":[
				1.1061831712722778,
				0.05150768160820007,
				-0.01792207360267639
			],
			"min":[
				-1.1061831712722778,
				-0.06883787363767624,
				-1.102670431137085
			],
			"type":"VEC3"
		},
		{
			"bufferView":147,
			"componentType":5126,
			"count":340,
			"type":"VEC3"
		},
		{
			"bufferView":148,
			"componentType":5126,
			"count":340,
			"type":"VEC2"
		},
		{
			"bufferView":149,
			"componentType":5123,
			"count":600,
			"type":"SCALAR"
		},
		{
			"bufferView":150,
			"componentType":5126,
			"count":312,
			"max":[
				1.0536011457443237,
				1.25,
				-7.450580596923828e-09
			],
			"min":[
				-1.0536011457443237,
				-1.25,
				-0.3538224399089813
			],
			"type":"VEC3"
		},
		{
			"bufferView":151,
			"componentType":5126,
			"count":312,
			"type":"VEC3"
		},
		{
			"bufferView":152,
			"componentType":5126,
			"count":312,
			"type":"VEC2"
		},
		{
			"bufferView":153,
			"componentType":5123,
			"count":588,
			"type":"SCALAR"
		},
		{
			"bufferView":154,
			"componentType":5126,
			"count":162,
			"max":[
				0.21402359008789062,
				0.4096768796443939,
				0.1454770714044571
			],
			"min":[
				-0.21402359008789062,
				-0.2830412983894348,
				-0.07789831608533859
			],
			"type":"VEC3"
		},
		{
			"bufferView":155,
			"componentType":5126,
			"count":162,
			"type":"VEC3"
		},
		{
			"bufferView":156,
			"componentType":5126,
			"count":162,
			"type":"VEC2"
		},
		{
			"bufferView":157,
			"componentType":5123,
			"count":408,
			"type":"SCALAR"
		},
		{
			"bufferView":158,
			"componentType":5126,
			"count":314,
			"max":[
				0.3573945462703705,
				0.36046266555786133,
				0.0018851347267627716
			],
			"min":[
				-0.3573945462703705,
				-0.4124118685722351,
				-0.9722840785980225
			],
			"type":"VEC3"
		},
		{
			"bufferView":159,
			"componentType":5126,
			"count":314,
			"type":"VEC3"
		},
		{
			"bufferView":160,
			"componentType":5126,
			"count":314,
			"type":"VEC2"
		},
		{
			"bufferView":161,
			"componentType":5123,
			"count":522,
			"type":"SCALAR"
		},
		{
			"bufferView":162,
			"componentType":5126,
			"count":376,
			"max":[
				0.7780583500862122,
				0.2981380522251129,
				1.862645149230957e-09
			],
			"min":[
				-0.7780583500862122,
				-0.2981380522251129,
				-0.5067550539970398
			],
			"type":"VEC3"
		},
		{
			"bufferView":163,
			"componentType":5126,
			"count":376,
			"type":"VEC3"
		},
		{
			"bufferView":164,
			"componentType":5126,
			"count":376,
			"type":"VEC2"
		},
		{
			"bufferView":165,
			"componentType":5123,
			"count":948,
			"type":"SCALAR"
		},
		{
			"bufferView":166,
			"componentType":5126,
			"count":92,
			"max":[
				0.6287088394165039,
				0.38305217027664185,
				0.15434689819812775
			],
			"min":[
				-0.6287088394165039,
				-0.2830412983894348,
				-0.08676813542842865
			],
			"type":"VEC3"
		},
		{
			"bufferView":167,
			"componentType":5126,
			"count":92,
			"type":"VEC3"
		},
		{
			"bufferView":168,
			"componentType":5126,
			"count":92,
			"type":"VEC2"
		},
		{
			"bufferView":169,
			"componentType":5123,
			"count":162,
			"type":"SCALAR"
		},
		{
			"bufferView":170,
			"componentType":5126,
			"count":160,
			"max":[
				0.7382990717887878,
				0.3230507969856262,
				0.0018851347267627716
			],
			"min":[
				-0.7382990717887878,
				-0.375,
				-0.9490373134613037
			],
			"type":"VEC3"
		},
		{
			"bufferView":171,
			"componentType":5126,
			"count":160,
			"type":"VEC3"
		},
		{
			"bufferView":172,
			"componentType":5126,
			"count":160,
			"type":"VEC2"
		},
		{
			"bufferView":173,
			"componentType":5123,
			"count":276,
			"type":"SCALAR"
		},
		{
			"bufferView":174,
			"componentType":5126,
			"count":268,
			"max":[
				0.0893433541059494,
				0.18371613323688507,
				0.0024358495138585567
			],
			"min":[
				-0.0873892679810524,
				-0.183241605758667,
				-0.39619940519332886
			],
			"type":"VEC3"
		},
		{
			"bufferView":175,
			"componentType":5126,
			"count":268,
			"type":"VEC3"
		},
		{
			"bufferView":176,
			"componentType":5126,
			"count":268,
			"type":"VEC2"
		},
		{
			"bufferView":177,
			"componentType":5123,
			"count":408,
			"type":"SCALAR"
		},
		{
			"bufferView":178,
			"componentType":5126,
			"count":195,
			"max":[
				0.043290141969919205,
				0.05983772501349449,
				-0.0003923617477994412
			],
			"min":[
				-0.043290212750434875,
				-0.09178905189037323,
				-0.03913667052984238
			],
			"type":"VEC3"
		},
		{
			"bufferView":179,
			"componentType":5126,
			"count":195,
			"type":"VEC3"
		},
		{
			"bufferView":180,
			"componentType":5126,
			"count":195,
			"type":"VEC2"
		},
		{
			"bufferView":181,
			"componentType":5123,
			"count":312,
			"type":"SCALAR"
		},
		{
			"bufferView":182,
			"componentType":5126,
			"count":168,
			"max":[
				0.21931594610214233,
				0.08612700551748276,
				0.002435848582535982
			],
			"min":[
				-0.21931594610214233,
				-0.08388502895832062,
				-0.03889574110507965
			],
			"type":"VEC3"
		},
		{
			"bufferView":183,
			"componentType":5126,
			"count":168,
			"type":"VEC3"
		},
		{
			"bufferView":184,
			"componentType":5126,
			"count":168,
			"type":"VEC2"
		},
		{
			"bufferView":185,
			"componentType":5123,
			"count":276,
			"type":"SCALAR"
		},
		{
			"bufferView":186,
			"componentType":5126,
			"count":176,
			"max":[
				0.3926977515220642,
				0.09177216142416,
				0.003973895683884621
			],
			"min":[
				-0.3926972448825836,
				-0.32664522528648376,
				-0.503266453742981
			],
			"type":"VEC3"
		},
		{
			"bufferView":187,
			"componentType":5126,
			"count":176,
			"type":"VEC3"
		},
		{
			"bufferView":188,
			"componentType":5126,
			"count":176,
			"type":"VEC2"
		},
		{
			"bufferView":189,
			"componentType":5123,
			"count":336,
			"type":"SCALAR"
		},
		{
			"bufferView":190,
			"componentType":5126,
			"count":186,
			"max":[
				1.1842520236968994,
				0.375,
				0.001885145902633667
			],
			"min":[
				-1.1842520236968994,
				-0.375,
				-0.9490373134613037
			],
			"type":"VEC3"
		},
		{
			"bufferView":191,
			"componentType":5126,
			"count":186,
			"type":"VEC3"
		},
		{
			"bufferView":192,
			"componentType":5126,
			"count":186,
			"type":"VEC2"
		},
		{
			"bufferView":193,
			"componentType":5123,
			"count":300,
			"type":"SCALAR"
		},
		{
			"bufferView":194,
			"componentType":5126,
			"count":48,
			"max":[
				1.000000238418579,
				0.12999999523162842,
				0
			],
			"min":[
				-1,
				-0.12999999523162842,
				-0.14524686336517334
			],
			"type":"VEC3"
		},
		{
			"bufferView":195,
			"componentType":5126,
			"count":48,
			"type":"VEC3"
		},
		{
			"bufferView":196,
			"componentType":5126,
			"count":48,
			"type":"VEC2"
		},
		{
			"bufferView":197,
			"componentType":5123,
			"count":72,
			"type":"SCALAR"
		},
		{
			"bufferView":198,
			"componentType":5126,
			"count":48,
			"max":[
				1.000000238418579,
				0.1000000387430191,
				0
			],
			"min":[
				-1,
				-0.10000002384185791,
				-3
			],
			"type":"VEC3"
		},
		{
			"bufferView":199,
			"componentType":5126,
			"count":48,
			"type":"VEC3"
		},
		{
			"bufferView":200,
			"componentType":5126,
			"count":48,
			"type":"VEC2"
		},
		{
			"bufferView":201,
			"componentType":5123,
			"count":84,
			"type":"SCALAR"
		},
		{
			"bufferView":202,
			"componentType":5126,
			"count":50,
			"max":[
				0.21000446379184723,
				0.06427109241485596,
				0.023149609565734863
			],
			"min":[
				-0.006584569811820984,
				-0.052390143275260925,
				-0.02314951829612255
			],
			"type":"VEC3"
		},
		{
			"bufferView":203,
			"componentType":5126,
			"count":50,
			"type":"VEC3"
		},
		{
			"bufferView":204,
			"componentType":5126,
			"count":50,
			"type":"VEC2"
		},
		{
			"bufferView":205,
			"componentType":5123,
			"count":102,
			"type":"SCALAR"
		},
		{
			"bufferView":206,
			"componentType":5126,
			"count":50,
			"max":[
				0.006584569811820984,
				0.052390143275260925,
				0.02314951829612255
			],
			"min":[
				-0.21000446379184723,
				-0.06427109241485596,
				-0.023149609565734863
			],
			"type":"VEC3"
		},
		{
			"bufferView":207,
			"componentType":5126,
			"count":50,
			"type":"VEC3"
		},
		{
			"bufferView":208,
			"componentType":5126,
			"count":50,
			"type":"VEC2"
		},
		{
			"bufferView":209,
			"componentType":5123,
			"count":102,
			"type":"SCALAR"
		},
		{
			"bufferView":210,
			"componentType":5126,
			"count":224,
			"max":[
				0,
				0.043538790196180344,
				0.004539549350738525
			],
			"min":[
				-1.0145189762115479,
				-0.043538790196180344,
				-2.020340919494629
			],
			"type":"VEC3"
		},
		{
			"bufferView":211,
			"componentType":5126,
			"count":224,
			"type":"VEC3"
		},
		{
			"bufferView":212,
			"componentType":5126,
			"count":224,
			"type":"VEC2"
		},
		{
			"bufferView":213,
			"componentType":5123,
			"count":444,
			"type":"SCALAR"
		},
		{
			"bufferView":214,
			"componentType":5126,
			"count":176,
			"max":[
				0.6047092080116272,
				0.13846269249916077,
				0
			],
			"min":[
				-0.6047090888023376,
				-0.13846269249916077,
				-2.1392030715942383
			],
			"type":"VEC3"
		},
		{
			"bufferView":215,
			"componentType":5126,
			"count":176,
			"type":"VEC3"
		},
		{
			"bufferView":216,
			"componentType":5126,
			"count":176,
			"type":"VEC2"
		},
		{
			"bufferView":217,
			"componentType":5123,
			"count":288,
			"type":"SCALAR"
		},
		{
			"bufferView":218,
			"componentType":5126,
			"count":148,
			"max":[
				1.579241394996643,
				0.3495032787322998,
				3.3001174425009543e-15
			],
			"min":[
				-0.5792415142059326,
				-0.2901856303215027,
				-2.047873020172119
			],
			"type":"VEC3"
		},
		{
			"bufferView":219,
			"componentType":5126,
			"count":148,
			"type":"VEC3"
		},
		{
			"bufferView":220,
			"componentType":5126,
			"count":148,
			"type":"VEC2"
		},
		{
			"bufferView":221,
			"componentType":5123,
			"count":276,
			"type":"SCALAR"
		},
		{
			"bufferView":222,
			"componentType":5126,
			"count":136,
			"max":[
				0.9212508797645569,
				0.08600263297557831,
				0.47486749291419983
			],
			"min":[
				-0.9212508797645569,
				-0.007721082307398319,
				-0.47486746311187744
			],
			"type":"VEC3"
		},
		{
			"bufferView":223,
			"componentType":5126,
			"count":136,
			"type":"VEC3"
		},
		{
			"bufferView":224,
			"componentType":5126,
			"count":136,
			"type":"VEC2"
		},
		{
			"bufferView":225,
			"componentType":5123,
			"count":228,
			"type":"SCALAR"
		},
		{
			"bufferView":226,
			"componentType":5126,
			"count":136,
			"max":[
				0.46062543988227844,
				0.04300139471888542,
				0.23743374645709991
			],
			"min":[
				-0.46062543988227844,
				-0.0038605411536991596,
				-1.2374337911605835
			],
			"type":"VEC3"
		},
		{
			"bufferView":227,
			"componentType":5126,
			"count":136,
			"type":"VEC3"
		},
		{
			"bufferView":228,
			"componentType":5126,
			"count":136,
			"type":"VEC2"
		},
		{
			"bufferView":229,
			"componentType":5123,
			"count":228,
			"type":"SCALAR"
		},
		{
			"bufferView":230,
			"componentType":5126,
			"count":136,
			"max":[
				0.46062543988227844,
				0.04300139471888542,
				0.23743374645709991
			],
			"min":[
				-0.46062543988227844,
				-0.0038605411536991596,
				-1.2374337911605835
			],
			"type":"VEC3"
		},
		{
			"bufferView":231,
			"componentType":5126,
			"count":136,
			"type":"VEC3"
		},
		{
			"bufferView":232,
			"componentType":5126,
			"count":136,
			"type":"VEC2"
		},
		{
			"bufferView":233,
			"componentType":5126,
			"count":136,
			"max":[
				0.46062543988227844,
				0.04300139471888542,
				0.23743374645709991
			],
			"min":[
				-0.46062543988227844,
				-0.0038605411536991596,
				-1.2374337911605835
			],
			"type":"VEC3"
		},
		{
			"bufferView":234,
			"componentType":5126,
			"count":136,
			"type":"VEC3"
		},
		{
			"bufferView":235,
			"componentType":5126,
			"count":136,
			"type":"VEC2"
		}
	],
	"bufferViews":[
		{
			"buffer":0,
			"byteLength":456,
			"byteOffset":0,
			"target":34962
		},
		{
			"buffer":0,
			"byteLength":456,
			"byteOffset":456,
			"target":34962
		},
		{
			"buffer":0,
			"byteLength":304,
			"byteOffset":912,
			"target":34962
		},
		{
			"buffer":0,
			"byteLength":120,
			"byteOffset":1216,
			"target":34963
		},
		{
			"buffer":0,
			"byteLength":552,
			"byteOffset":1336,
			"target":34962
		},
		{
			"buffer":0,
			"byteLength":552,
			"byteOffset":1888,
			"target":34962
		},
		{
			"buffer":0,
			"byteLength":368,
			"byteOffset":2440,
			"target":34962
		},
		{
			"buffer":0,
			"byteLength":168,
			"byteOffset":2808,
			"target":34963
		},
		{
			"buffer":0,
			"byteLength":456,
			"byteOffset":2976,
			"target":34962
		},
		{
			"buffer":0,
			"byteLength":456,
			"byteOffset":3432,
			"target":34962
		},
		{
			"buffer":0,
			"byteLength":304,
			"byteOffset":3888,
			"target":34962
		},
		{
			"buffer":0,
			"byteLength":552,
			"byteOffset":4192,
			"target":34962
		},
		{
			"buffer":0,
			"byteLength":552,
			"byteOffset":4744,
			"target":34962
		},
		{
			"buffer":0,
			"byteLength":368,
			"byteOffset":5296,
			"target":34962
		},
		{
			"buffer":0,
			"byteLength":456,
			"byteOffset":5664,
			"target":34962
		},
		{
			"buffer":0,
			"byteLength":456,
			"byteOffset":6120,
			"target":34962
		},
		{
			"buffer":0,
			"byteLength":304,
			"byteOffset":6576,
			"target":34962
		},
		{
			"buffer":0,
			"byteLength":552,
			"byteOffset":6880,
			"target":34962
		},
		{
			"buffer":0,
			"byteLength":552,
			"byteOffset":7432,
			"target":34962
		},
		{
			"buffer":0,
			"byteLength":368,
			"byteOffset":7984,
			"target":34962
		},
		{
			"buffer":0,
			"byteLength":456,
			"byteOffset":8352,
			"target":34962
		},
		{
			"buffer":0,
			"byteLength":456,
			"byteOffset":8808,
			"target":34962
		},
		{
			"buffer":0,
			"byteLength":304,
			"byteOffset":9264,
			"target":34962
		},
		{
			"buffer":0,
			"byteLength":552,
			"byteOffset":9568,
			"target":34962
		},
		{
			"buffer":0,
			"byteLength":552,
			"byteOffset":10120,
			"target":34962
		},
		{
			"buffer":0,
			"byteLength":368,
			"byteOffset":10672,
			"target":34962
		},
		{
			"buffer":0,
			"byteLength":288,
			"byteOffset":11040,
			"target":34962
		},
		{
			"buffer":0,
			"byteLength":288,
			"byteOffset":11328,
			"target":34962
		},
		{
			"buffer":0,
			"byteLength":192,
			"byteOffset":11616,
			"target":34962
		},
		{
			"buffer":0,
			"byteLength":72,
			"byteOffset":11808,
			"target":34963
		},
		{
			"buffer":0,
			"byteLength":288,
			"byteOffset":11880,
			"target":34962
		},
		{
			"buffer":0,
			"byteLength":288,
			"byteOffset":12168,
			"target":34962
		},
		{
			"buffer":0,
			"byteLength":192,
			"byteOffset":12456,
			"target":34962
		},
		{
			"buffer":0,
			"byteLength":288,
			"byteOffset":12648,
			"target":34962
		},
		{
			"buffer":0,
			"byteLength":288,
			"byteOffset":12936,
			"target":34962
		},
		{
			"buffer":0,
			"byteLength":192,
			"byteOffset":13224,
			"target":34962
		},
		{
			"buffer":0,
			"byteLength":288,
			"byteOffset":13416,
			"target":34962
		},
		{
			"buffer":0,
			"byteLength":288,
			"byteOffset":13704,
			"target":34962
		},
		{
			"buffer":0,
			"byteLength":192,
			"byteOffset":13992,
			"target":34962
		},
		{
			"buffer":0,
			"byteLength":288,
			"byteOffset":14184,
			"target":34962
		},
		{
			"buffer":0,
			"byteLength":288,
			"byteOffset":14472,
			"target":34962
		},
		{
			"buffer":0,
			"byteLength":192,
			"byteOffset":14760,
			"target":34962
		},
		{
			"buffer":0,
			"byteLength":288,
			"byteOffset":14952,
			"target":34962
		},
		{
			"buffer":0,
			"byteLength":288,
			"byteOffset":15240,
			"target":34962
		},
		{
			"buffer":0,
			"byteLength":192,
			"byteOffset":15528,
			"target":34962
		},
		{
			"buffer":0,
			"byteLength":288,
			"byteOffset":15720,
			"target":34962
		},
		{
			"buffer":0,
			"byteLength":288,
			"byteOffset":16008,
			"target":34962
		},
		{
			"buffer":0,
			"byteLength":192,
			"byteOffset":16296,
			"target":34962
		},
		{
			"buffer":0,
			"byteLength":288,
			"byteOffset":16488,
			"target":34962
		},
		{
			"buffer":0,
			"byteLength":288,
			"byteOffset":16776,
			"target":34962
		},
		{
			"buffer":0,
			"byteLength":192,
			"byteOffset":17064,
			"target":34962
		},
		{
			"buffer":0,
			"byteLength":288,
			"byteOffset":17256,
			"target":34962
		},
		{
			"buffer":0,
			"byteLength":288,
			"byteOffset":17544,
			"target":34962
		},
		{
			"buffer":0,
			"byteLength":192,
			"byteOffset":17832,
			"target":34962
		},
		{
			"buffer":0,
			"byteLength":288,
			"byteOffset":18024,
			"target":34962
		},
		{
			"buffer":0,
			"byteLength":288,
			"byteOffset":18312,
			"target":34962
		},
		{
			"buffer":0,
			"byteLength":192,
			"byteOffset":18600,
			"target":34962
		},
		{
			"buffer":0,
			"byteLength":288,
			"byteOffset":18792,
			"target":34962
		},
		{
			"buffer":0,
			"byteLength":288,
			"byteOffset":19080,
			"target":34962
		},
		{
			"buffer":0,
			"byteLength":192,
			"byteOffset":19368,
			"target":34962
		},
		{
			"buffer":0,
			"byteLength":288,
			"byteOffset":19560,
			"target":34962
		},
		{
			"buffer":0,
			"byteLength":288,
			"byteOffset":19848,
			"target":34962
		},
		{
			"buffer":0,
			"byteLength":192,
			"byteOffset":20136,
			"target":34962
		},
		{
			"buffer":0,
			"byteLength":288,
			"byteOffset":20328,
			"target":34962
		},
		{
			"buffer":0,
			"byteLength":288,
			"byteOffset":20616,
			"target":34962
		},
		{
			"buffer":0,
			"byteLength":192,
			"byteOffset":20904,
			"target":34962
		},
		{
			"buffer":0,
			"byteLength":72,
			"byteOffset":21096,
			"target":34963
		},
		{
			"buffer":0,
			"byteLength":288,
			"byteOffset":21168,
			"target":34962
		},
		{
			"buffer":0,
			"byteLength":288,
			"byteOffset":21456,
			"target":34962
		},
		{
			"buffer":0,
			"byteLength":192,
			"byteOffset":21744,
			"target":34962
		},
		{
			"buffer":0,
			"byteLength":72,
			"byteOffset":21936,
			"target":34963
		},
		{
			"buffer":0,
			"byteLength":288,
			"byteOffset":22008,
			"target":34962
		},
		{
			"buffer":0,
			"byteLength":288,
			"byteOffset":22296,
			"target":34962
		},
		{
			"buffer":0,
			"byteLength":192,
			"byteOffset":22584,
			"target":34962
		},
		{
			"buffer":0,
			"byteLength":288,
			"byteOffset":22776,
			"target":34962
		},
		{
			"buffer":0,
			"byteLength":288,
			"byteOffset":23064,
			"target":34962
		},
		{
			"buffer":0,
			"byteLength":192,
			"byteOffset":23352,
			"target":34962
		},
		{
			"buffer":0,
			"byteLength":288,
			"byteOffset":23544,
			"target":34962
		},
		{
			"buffer":0,
			"byteLength":288,
			"byteOffset":23832,
			"target":34962
		},
		{
			"buffer":0,
			"byteLength":192,
			"byteOffset":24120,
			"target":34962
		},
		{
			"buffer":0,
			"byteLength":288,
			"byteOffset":24312,
			"target":34962
		},
		{
			"buffer":0,
			"byteLength":288,
			"byteOffset":24600,
			"target":34962
		},
		{
			"buffer":0,
			"byteLength":192,
			"byteOffset":24888,
			"target":34962
		},
		{
			"buffer":0,
			"byteLength":288,
			"byteOffset":25080,
			"target":34962
		},
		{
			"buffer":0,
			"byteLength":288,
			"byteOffset":25368,
			"target":34962
		},
		{
			"buffer":0,
			"byteLength":192,
			"byteOffset":25656,
			"target":34962
		},
		{
			"buffer":0,
			"byteLength":288,
			"byteOffset":25848,
			"target":34962
		},
		{
			"buffer":0,
			"byteLength":288,
			"byteOffset":26136,
			"target":34962
		},
		{
			"buffer":0,
			"byteLength":192,
			"byteOffset":26424,
			"target":34962
		},
		{
			"buffer":0,
			"byteLength":288,
			"byteOffset":26616,
			"target":34962
		},
		{
			"buffer":0,
			"byteLength":288,
			"byteOffset":26904,
			"target":34962
		},
		{
			"buffer":0,
			"byteLength":192,
			"byteOffset":27192,
			"target":34962
		},
		{
			"buffer":0,
			"byteLength":288,
			"byteOffset":27384,
			"target":34962
		},
		{
			"buffer":0,
			"byteLength":288,
			"byteOffset":27672,
			"target":34962
		},
		{
			"buffer":0,
			"byteLength":192,
			"byteOffset":27960,
			"target":34962
		},
		{
			"buffer":0,
			"byteLength":2160,
			"byteOffset":28152,
			"target":34962
		},
		{
			"buffer":0,
			"byteLength":2160,
			"byteOffset":30312,
			"target":34962
		},
		{
			"buffer":0,
			"byteLength":1440,
			"byteOffset":32472,
			"target":34962
		},
		{
			"buffer":0,
			"byteLength":1560,
			"byteOffset":33912,
			"target":34963
		},
		{
			"buffer":0,
			"byteLength":6000,
			"byteOffset":35472,
			"target":34962
		},
		{
			"buffer":0,
			"byteLength":6000,
			"byteOffset":41472,
			"target":34962
		},
		{
			"buffer":0,
			"byteLength":4000,
			"byteOffset":47472,
			"target":34962
		},
		{
			"buffer":0,
			"byteLength":1632,
			"byteOffset":51472,
			"target":34963
		},
		{
			"buffer":0,
			"byteLength":2328,
			"byteOffset":53104,
			"target":34962
		},
		{
			"buffer":0,
			"byteLength":2328,
			"byteOffset":55432,
			"target":34962
		},
		{
			"buffer":0,
			"byteLength":1552,
			"byteOffset":57760,
			"target":34962
		},
		{
			"buffer":0,
			"byteLength":624,
			"byteOffset":59312,
			"target":34963
		},
		{
			"buffer":0,
			"byteLength":14604,
			"byteOffset":59936,
			"target":34962
		},
		{
			"buffer":0,
			"byteLength":14604,
			"byteOffset":74540,
			"target":34962
		},
		{
			"buffer":0,
			"byteLength":9736,
			"byteOffset":89144,
			"target":34962
		},
		{
			"buffer":0,
			"byteLength":7008,
			"byteOffset":98880,
			"target":34963
		},
		{
			"buffer":0,
			"byteLength":3864,
			"byteOffset":105888,
			"target":34962
		},
		{
			"buffer":0,
			"byteLength":3864,
			"byteOffset":109752,
			"target":34962
		},
		{
			"buffer":0,
			"byteLength":2576,
			"byteOffset":113616,
			"target":34962
		},
		{
			"buffer":0,
			"byteLength":1260,
			"byteOffset":116192,
			"target":34963
		},
		{
			"buffer":0,
			"byteLength":1560,
			"byteOffset":117452,
			"target":34962
		},
		{
			"buffer":0,
			"byteLength":1560,
			"byteOffset":119012,
			"target":34962
		},
		{
			"buffer":0,
			"byteLength":1040,
			"byteOffset":120572,
			"target":34962
		},
		{
			"buffer":0,
			"byteLength":552,
			"byteOffset":121612,
			"target":34963
		},
		{
			"buffer":0,
			"byteLength":1560,
			"byteOffset":122164,
			"target":34962
		},
		{
			"buffer":0,
			"byteLength":1560,
			"byteOffset":123724,
			"target":34962
		},
		{
			"buffer":0,
			"byteLength":1040,
			"byteOffset":125284,
			"target":34962
		},
		{
			"buffer":0,
			"byteLength":552,
			"byteOffset":126324,
			"target":34963
		},
		{
			"buffer":0,
			"byteLength":1560,
			"byteOffset":126876,
			"target":34962
		},
		{
			"buffer":0,
			"byteLength":1560,
			"byteOffset":128436,
			"target":34962
		},
		{
			"buffer":0,
			"byteLength":1040,
			"byteOffset":129996,
			"target":34962
		},
		{
			"buffer":0,
			"byteLength":552,
			"byteOffset":131036,
			"target":34963
		},
		{
			"buffer":0,
			"byteLength":1560,
			"byteOffset":131588,
			"target":34962
		},
		{
			"buffer":0,
			"byteLength":1560,
			"byteOffset":133148,
			"target":34962
		},
		{
			"buffer":0,
			"byteLength":1040,
			"byteOffset":134708,
			"target":34962
		},
		{
			"buffer":0,
			"byteLength":552,
			"byteOffset":135748,
			"target":34963
		},
		{
			"buffer":0,
			"byteLength":1560,
			"byteOffset":136300,
			"target":34962
		},
		{
			"buffer":0,
			"byteLength":1560,
			"byteOffset":137860,
			"target":34962
		},
		{
			"buffer":0,
			"byteLength":1040,
			"byteOffset":139420,
			"target":34962
		},
		{
			"buffer":0,
			"byteLength":5868,
			"byteOffset":140460,
			"target":34962
		},
		{
			"buffer":0,
			"byteLength":5868,
			"byteOffset":146328,
			"target":34962
		},
		{
			"buffer":0,
			"byteLength":3912,
			"byteOffset":152196,
			"target":34962
		},
		{
			"buffer":0,
			"byteLength":2964,
			"byteOffset":156108,
			"target":34963
		},
		{
			"buffer":0,
			"byteLength":864,
			"byteOffset":159072,
			"target":34962
		},
		{
			"buffer":0,
			"byteLength":864,
			"byteOffset":159936,
			"target":34962
		},
		{
			"buffer":0,
			"byteLength":576,
			"byteOffset":160800,
			"target":34962
		},
		{
			"buffer":0,
			"byteLength":360,
			"byteOffset":161376,
			"target":34963
		},
		{
			"buffer":0,
			"byteLength":8064,
			"byteOffset":161736,
			"target":34962
		},
		{
			"buffer":0,
			"byteLength":8064,
			"byteOffset":169800,
			"target":34962
		},
		{
			"buffer":0,
			"byteLength":5376,
			"byteOffset":177864,
			"target":34962
		},
		{
			"buffer":0,
			"byteLength":2088,
			"byteOffset":183240,
			"target":34963
		},
		{
			"buffer":0,
			"byteLength":4080,
			"byteOffset":185328,
			"target":34962
		},
		{
			"buffer":0,
			"byteLength":4080,
			"byteOffset":189408,
			"target":34962
		},
		{
			"buffer":0,
			"byteLength":2720,
			"byteOffset":193488,
			"target":34962
		},
		{
			"buffer":0,
			"byteLength":1200,
			"byteOffset":196208,
			"target":34963
		},
		{
			"buffer":0,
			"byteLength":3744,
			"byteOffset":197408,
			"target":34962
		},
		{
			"buffer":0,
			"byteLength":3744,
			"byteOffset":201152,
			"target":34962
		},
		{
			"buffer":0,
			"byteLength":2496,
			"byteOffset":204896,
			"target":34962
		},
		{
			"buffer":0,
			"byteLength":1176,
			"byteOffset":207392,
			"target":34963
		},
		{
			"buffer":0,
			"byteLength":1944,
			"byteOffset":208568,
			"target":34962
		},
		{
			"buffer":0,
			"byteLength":1944,
			"byteOffset":210512,
			"target":34962
		},
		{
			"buffer":0,
			"byteLength":1296,
			"byteOffset":212456,
			"target":34962
		},
		{
			"buffer":0,
			"byteLength":816,
			"byteOffset":213752,
			"target":34963
		},
		{
			"buffer":0,
			"byteLength":3768,
			"byteOffset":214568,
			"target":34962
		},
		{
			"buffer":0,
			"byteLength":3768,
			"byteOffset":218336,
			"target":34962
		},
		{
			"buffer":0,
			"byteLength":2512,
			"byteOffset":222104,
			"target":34962
		},
		{
			"buffer":0,
			"byteLength":1044,
			"byteOffset":224616,
			"target":34963
		},
		{
			"buffer":0,
			"byteLength":4512,
			"byteOffset":225660,
			"target":34962
		},
		{
			"buffer":0,
			"byteLength":4512,
			"byteOffset":230172,
			"target":34962
		},
		{
			"buffer":0,
			"byteLength":3008,
			"byteOffset":234684,
			"target":34962
		},
		{
			"buffer":0,
			"byteLength":1896,
			"byteOffset":237692,
			"target":34963
		},
		{
			"buffer":0,
			"byteLength":1104,
			"byteOffset":239588,
			"target":34962
		},
		{
			"buffer":0,
			"byteLength":1104,
			"byteOffset":240692,
			"target":34962
		},
		{
			"buffer":0,
			"byteLength":736,
			"byteOffset":241796,
			"target":34962
		},
		{
			"buffer":0,
			"byteLength":324,
			"byteOffset":242532,
			"target":34963
		},
		{
			"buffer":0,
			"byteLength":1920,
			"byteOffset":242856,
			"target":34962
		},
		{
			"buffer":0,
			"byteLength":1920,
			"byteOffset":244776,
			"target":34962
		},
		{
			"buffer":0,
			"byteLength":1280,
			"byteOffset":246696,
			"target":34962
		},
		{
			"buffer":0,
			"byteLength":552,
			"byteOffset":247976,
			"target":34963
		},
		{
			"buffer":0,
			"byteLength":3216,
			"byteOffset":248528,
			"target":34962
		},
		{
			"buffer":0,
			"byteLength":3216,
			"byteOffset":251744,
			"target":34962
		},
		{
			"buffer":0,
			"byteLength":2144,
			"byteOffset":254960,
			"target":34962
		},
		{
			"buffer":0,
			"byteLength":816,
			"byteOffset":257104,
			"target":34963
		},
		{
			"buffer":0,
			"byteLength":2340,
			"byteOffset":257920,
			"target":34962
		},
		{
			"buffer":0,
			"byteLength":2340,
			"byteOffset":260260,
			"target":34962
		},
		{
			"buffer":0,
			"byteLength":1560,
			"byteOffset":262600,
			"target":34962
		},
		{
			"buffer":0,
			"byteLength":624,
			"byteOffset":264160,
			"target":34963
		},
		{
			"buffer":0,
			"byteLength":2016,
			"byteOffset":264784,
			"target":34962
		},
		{
			"buffer":0,
			"byteLength":2016,
			"byteOffset":266800,
			"target":34962
		},
		{
			"buffer":0,
			"byteLength":1344,
			"byteOffset":268816,
			"target":34962
		},
		{
			"buffer":0,
			"byteLength":552,
			"byteOffset":270160,
			"target":34963
		},
		{
			"buffer":0,
			"byteLength":2112,
			"byteOffset":270712,
			"target":34962
		},
		{
			"buffer":0,
			"byteLength":2112,
			"byteOffset":272824,
			"target":34962
		},
		{
			"buffer":0,
			"byteLength":1408,
			"byteOffset":274936,
			"target":34962
		},
		{
			"buffer":0,
			"byteLength":672,
			"byteOffset":276344,
			"target":34963
		},
		{
			"buffer":0,
			"byteLength":2232,
			"byteOffset":277016,
			"target":34962
		},
		{
			"buffer":0,
			"byteLength":2232,
			"byteOffset":279248,
			"target":34962
		},
		{
			"buffer":0,
			"byteLength":1488,
			"byteOffset":281480,
			"target":34962
		},
		{
			"buffer":0,
			"byteLength":600,
			"byteOffset":282968,
			"target":34963
		},
		{
			"buffer":0,
			"byteLength":576,
			"byteOffset":283568,
			"target":34962
		},
		{
			"buffer":0,
			"byteLength":576,
			"byteOffset":284144,
			"target":34962
		},
		{
			"buffer":0,
			"byteLength":384,
			"byteOffset":284720,
			"target":34962
		},
		{
			"buffer":0,
			"byteLength":144,
			"byteOffset":285104,
			"target":34963
		},
		{
			"buffer":0,
			"byteLength":576,
			"byteOffset":285248,
			"target":34962
		},
		{
			"buffer":0,
			"byteLength":576,
			"byteOffset":285824,
			"target":34962
		},
		{
			"buffer":0,
			"byteLength":384,
			"byteOffset":286400,
			"target":34962
		},
		{
			"buffer":0,
			"byteLength":168,
			"byteOffset":286784,
			"target":34963
		},
		{
			"buffer":0,
			"byteLength":600,
			"byteOffset":286952,
			"target":34962
		},
		{
			"buffer":0,
			"byteLength":600,
			"byteOffset":287552,
			"target":34962
		},
		{
			"buffer":0,
			"byteLength":400,
			"byteOffset":288152,
			"target":34962
		},
		{
			"buffer":0,
			"byteLength":204,
			"byteOffset":288552,
			"target":34963
		},
		{
			"buffer":0,
			"byteLength":600,
			"byteOffset":288756,
			"target":34962
		},
		{
			"buffer":0,
			"byteLength":600,
			"byteOffset":289356,
			"target":34962
		},
		{
			"buffer":0,
			"byteLength":400,
			"byteOffset":289956,
			"target":34962
		},
		{
			"buffer":0,
			"byteLength":204,
			"byteOffset":290356,
			"target":34963
		},
		{
			"buffer":0,
			"byteLength":2688,
			"byteOffset":290560,
			"target":34962
		},
		{
			"buffer":0,
			"byteLength":2688,
			"byteOffset":293248,
			"target":34962
		},
		{
			"buffer":0,
			"byteLength":1792,
			"byteOffset":295936,
			"target":34962
		},
		{
			"buffer":0,
			"byteLength":888,
			"byteOffset":297728,
			"target":34963
		},
		{
			"buffer":0,
			"byteLength":2112,
			"byteOffset":298616,
			"target":34962
		},
		{
			"buffer":0,
			"byteLength":2112,
			"byteOffset":300728,
			"target":34962
		},
		{
			"buffer":0,
			"byteLength":1408,
			"byteOffset":302840,
			"target":34962
		},
		{
			"buffer":0,
			"byteLength":576,
			"byteOffset":304248,
			"target":34963
		},
		{
			"buffer":0,
			"byteLength":1776,
			"byteOffset":304824,
			"target":34962
		},
		{
			"buffer":0,
			"byteLength":1776,
			"byteOffset":306600,
			"target":34962
		},
		{
			"buffer":0,
			"byteLength":1184,
			"byteOffset":308376,
			"target":34962
		},
		{
			"buffer":0,
			"byteLength":552,
			"byteOffset":309560,
			"target":34963
		},
		{
			"buffer":0,
			"byteLength":1632,
			"byteOffset":310112,
			"target":34962
		},
		{
			"buffer":0,
			"byteLength":1632,
			"byteOffset":311744,
			"target":34962
		},
		{
			"buffer":0,
			"byteLength":1088,
			"byteOffset":313376,
			"target":34962
		},
		{
			"buffer":0,
			"byteLength":456,
			"byteOffset":314464,
			"target":34963
		},
		{
			"buffer":0,
			"byteLength":1632,
			"byteOffset":314920,
			"target":34962
		},
		{
			"buffer":0,
			"byteLength":1632,
			"byteOffset":316552,
			"target":34962
		},
		{
			"buffer":0,
			"byteLength":1088,
			"byteOffset":318184,
			"target":34962
		},
		{
			"buffer":0,
			"byteLength":456,
			"byteOffset":319272,
			"target":34963
		},
		{
			"buffer":0,
			"byteLength":1632,
			"byteOffset":319728,
			"target":34962
		},
		{
			"buffer":0,
			"byteLength":1632,
			"byteOffset":321360,
			"target":34962
		},
		{
			"buffer":0,
			"byteLength":1088,
			"byteOffset":322992,
			"target":34962
		},
		{
			"buffer":0,
			"byteLength":1632,
			"byteOffset":324080,
			"target":34962
		},
		{
			"buffer":0,
			"byteLength":1632,
			"byteOffset":325712,
			"target":34962
		},
		{
			"buffer":0,
			"byteLength":1088,
			"byteOffset":327344,
			"target":34962
		}
	],
	"buffers":[
		{
			"byteLength":328432,
			"uri":"Blockout.bin"
		}
	]
}
